<svg width="20" height="20" viewBox="0 0 20 20" fill="none" xmlns="http://www.w3.org/2000/svg">
<path d="M6.667 2.49935C6.667 2.03911 6.2939 1.66602 5.83366 1.66602C5.37343 1.66602 5.00033 2.03911 5.00033 2.49935V3.33271C4.6178 3.33294 4.28429 3.3353 4.00447 3.35816C3.67502 3.38507 3.34734 3.4445 3.03202 3.60517C2.56161 3.84485 2.17916 4.2273 1.93948 4.69771C1.77882 5.01302 1.71939 5.3407 1.69247 5.67016C1.66961 5.94997 1.66725 6.28349 1.66702 6.66602H18.3336C18.3334 6.28349 18.331 5.94997 18.3082 5.67016C18.2813 5.3407 18.2218 5.01302 18.0612 4.69771C17.8215 4.2273 17.439 3.84485 16.9686 3.60517C16.6533 3.4445 16.3256 3.38507 15.9962 3.35816C15.7164 3.3353 15.3829 3.33294 15.0003 3.33271V2.49935C15.0003 2.03911 14.6272 1.66602 14.167 1.66602C13.7068 1.66602 13.3337 2.03911 13.3337 2.49935V3.33268H6.667V2.49935Z" fill="#98A4A8"/>
<path fill-rule="evenodd" clip-rule="evenodd" d="M18.3337 8.33268H1.66699V14.8648C1.66698 15.3041 1.66697 15.6831 1.69247 15.9952C1.71939 16.3247 1.77882 16.6523 1.93948 16.9677C2.17916 17.4381 2.56161 17.8205 3.03202 18.0602C3.34734 18.2209 3.67502 18.2803 4.00447 18.3072C4.31661 18.3327 4.69557 18.3327 5.13486 18.3327H14.8658C15.3051 18.3327 15.684 18.3327 15.9962 18.3072C16.3256 18.2803 16.6533 18.2209 16.9686 18.0602C17.439 17.8205 17.8215 17.4381 18.0612 16.9677C18.2218 16.6523 18.2813 16.3247 18.3082 15.9952C18.3337 15.6831 18.3337 15.3041 18.3337 14.8648V8.33268ZM4.25782 10.4544C4.16699 10.6326 4.16699 10.866 4.16699 11.3327V11.9993C4.16699 12.4661 4.16699 12.6994 4.25782 12.8777C4.33772 13.0345 4.4652 13.162 4.622 13.2419C4.80026 13.3327 5.03362 13.3327 5.50033 13.3327H6.16699C6.6337 13.3327 6.86706 13.3327 7.04532 13.2419C7.20212 13.162 7.3296 13.0345 7.4095 12.8777C7.50033 12.6994 7.50033 12.4661 7.50033 11.9993V11.3327C7.50033 10.866 7.50033 10.6326 7.4095 10.4544C7.3296 10.2976 7.20212 10.1701 7.04532 10.0902C6.86706 9.99935 6.6337 9.99935 6.16699 9.99935H5.50033C5.03362 9.99935 4.80026 9.99935 4.622 10.0902C4.4652 10.1701 4.33772 10.2976 4.25782 10.4544Z" fill="#98A4A8"/>
</svg>
