<svg width="16" height="16" viewBox="0 0 16 16" fill="none" xmlns="http://www.w3.org/2000/svg">
<path d="M10.3332 3.66646L12.2188 5.55208M8.66667 13.9993H14M2 13.9996L2.03163 13.7782C2.14357 12.9946 2.19954 12.6028 2.32686 12.237C2.43983 11.9125 2.59416 11.6038 2.78604 11.3187C3.00228 10.9974 3.28213 10.7175 3.84183 10.1578L11.6072 2.39248C12.1279 1.87178 12.9721 1.87178 13.4928 2.39248C14.0135 2.91318 14.0135 3.7574 13.4928 4.27809L5.58496 12.1859C5.0772 12.6937 4.82331 12.9476 4.53413 13.1495C4.27745 13.3287 4.00062 13.4771 3.70932 13.5918C3.38114 13.721 3.02917 13.792 2.32529 13.934L2 13.9996Z" stroke="#98A4A8" stroke-width="1.5" stroke-linecap="round" stroke-linejoin="round"/>
</svg>
